{
  "accessors": [
    {
      "bufferView": 2,
      "componentType": 5126,
      "count": 30486,
      "max": [
        0.931306004524231,
        0.3755030035972595,
        2.778470993041992
      ],
      "min": [
        -0.9265249967575073,
        -0.2880690097808838,
        1.4066890478134155
      ],
      "type": "VEC3"
    },
    {
      "bufferView": 2,
      "byteOffset": 365832,
      "componentType": 5126,
      "count": 30486,
      "max": [
        1.0,
        1.0,
        1.0
      ],
      "min": [
        -1.0,
        -1.0,
        -1.0
      ],
      "type": "VEC3"
    },
    {
      "bufferView": 3,
      "componentType": 5126,
      "count": 30486,
      "max": [
        1.0,
        0.9999330639839172,
        0.9999974966049194,
        1.0
      ],
      "min": [
        -0.9999977946281433,
        -0.9999886751174927,
        -0.9999316334724426,
        -1.0
      ],
      "type": "VEC4"
    },
    {
      "bufferView": 1,
      "componentType": 5126,
      "count": 30486,
      "max": [
        0.9866539835929871,
        0.9998289942741394
      ],
      "min": [
        0.00017100000695791095,
        0.00017100000695791095
      ],
      "type": "VEC2"
    },
    {
      "bufferView": 0,
      "componentType": 5125,
      "count": 77925,
      "type": "SCALAR"
    },
    {
      "bufferView": 2,
      "byteOffset": 731664,
      "componentType": 5126,
      "count": 42216,
      "max": [
        0.6448569893836975,
        0.7305049896240234,
        2.9858579635620117
      ],
      "min": [
        -0.6476929783821106,
        -0.2580539882183075,
        1.364833950996399
      ],
      "type": "VEC3"
    },
    {
      "bufferView": 2,
      "byteOffset": 1238256,
      "componentType": 5126,
      "count": 42216,
      "max": [
        1.0,
        1.0,
        1.0
      ],
      "min": [
        -1.0,
        -1.0,
        -1.0
      ],
      "type": "VEC3"
    },
    {
      "bufferView": 3,
      "byteOffset": 487776,
      "componentType": 5126,
      "count": 42216,
      "max": [
        1.0,
        1.0,
        1.0,
        1.0
      ],
      "min": [
        -1.0,
        -1.0,
        -1.0,
        -1.0
      ],
      "type": "VEC4"
    },
    {
      "bufferView": 1,
      "byteOffset": 243888,
      "componentType": 5126,
      "count": 42216,
      "max": [
        0.9918850064277649,
        0.9998360276222229
      ],
      "min": [
        0.00016399999731220305,
        0.00016399999731220305
      ],
      "type": "VEC2"
    },
    {
      "bufferView": 0,
      "byteOffset": 311700,
      "componentType": 5125,
      "count": 119910,
      "type": "SCALAR"
    },
    {
      "bufferView": 2,
      "byteOffset": 1744848,
      "componentType": 5126,
      "count": 47724,
      "max": [
        0.6242619752883911,
        0.45619499683380127,
        2.226289987564087
      ],
      "min": [
        -0.6293749809265137,
        -0.26493701338768005,
        -0.001986999996006489
      ],
      "type": "VEC3"
    },
    {
      "bufferView": 2,
      "byteOffset": 2317536,
      "componentType": 5126,
      "count": 47724,
      "max": [
        1.0,
        1.0,
        1.0
      ],
      "min": [
        -1.0,
        -1.0,
        -1.0
      ],
      "type": "VEC3"
    },
    {
      "bufferView": 3,
      "byteOffset": 1163232,
      "componentType": 5126,
      "count": 47724,
      "max": [
        1.0,
        1.0,
        0.9999997019767761,
        1.0
      ],
      "min": [
        -1.0,
        -0.9999997615814209,
        -0.9999802112579346,
        -1.0
      ],
      "type": "VEC4"
    },
    {
      "bufferView": 1,
      "byteOffset": 581616,
      "componentType": 5126,
      "count": 47724,
      "max": [
        0.9942730069160461,
        0.9998030066490173
      ],
      "min": [
        0.00019700000120792538,
        0.00019700000120792538
      ],
      "type": "VEC2"
    },
    {
      "bufferView": 0,
      "byteOffset": 791340,
      "componentType": 5125,
      "count": 124164,
      "type": "SCALAR"
    }
  ],
  "asset": {
    "extras": {
      "author": "3DYAROSLAV2 (https://sketchfab.com/3DYAROSLAV2)",
      "license": "SKETCHFAB Standard (https://sketchfab.com/licenses)",
      "source": "https://sketchfab.com/3d-models/power-armor-frame-fallout-4-c35c3020b1d347a29d5ffbc787bf6f59",
      "title": "POWER ARMOR FRAME FALLOUT 4"
    },
    "generator": "Sketchfab-16.15.0",
    "version": "2.0"
  },
  "bufferViews": [
    {
      "buffer": 0,
      "byteLength": 1287996,
      "name": "floatBufferViews",
      "target": 34963
    },
    {
      "buffer": 0,
      "byteLength": 963408,
      "byteOffset": 1287996,
      "byteStride": 8,
      "name": "floatBufferViews",
      "target": 34962
    },
    {
      "buffer": 0,
      "byteLength": 2890224,
      "byteOffset": 2251404,
      "byteStride": 12,
      "name": "floatBufferViews",
      "target": 34962
    },
    {
      "buffer": 0,
      "byteLength": 1926816,
      "byteOffset": 5141628,
      "byteStride": 16,
      "name": "floatBufferViews",
      "target": 34962
    }
  ],
  "buffers": [
    {
      "byteLength": 7068444,
      "uri": "scene.bin"
    }
  ],
  "images": [
    {
      "uri": "textures/ARMS_baseColor.jpeg"
    },
    {
      "uri": "textures/ARMS_metallicRoughness.png"
    },
    {
      "uri": "textures/ARMS_normal.png"
    },
    {
      "uri": "textures/BODY_baseColor.jpeg"
    },
    {
      "uri": "textures/BODY_metallicRoughness.png"
    },
    {
      "uri": "textures/BODY_normal.png"
    },
    {
      "uri": "textures/LEGS_baseColor.jpeg"
    },
    {
      "uri": "textures/LEGS_metallicRoughness.png"
    },
    {
      "uri": "textures/LEGS_normal.png"
    }
  ],
  "materials": [
    {
      "doubleSided": true,
      "name": "ARMS",
      "normalTexture": {
        "index": 2
      },
      "occlusionTexture": {
        "index": 1
      },
      "pbrMetallicRoughness": {
        "baseColorTexture": {
          "index": 0
        },
        "metallicRoughnessTexture": {
          "index": 1
        }
      }
    },
    {
      "doubleSided": true,
      "name": "BODY",
      "normalTexture": {
        "index": 5
      },
      "occlusionTexture": {
        "index": 4
      },
      "pbrMetallicRoughness": {
        "baseColorTexture": {
          "index": 3
        },
        "metallicRoughnessTexture": {
          "index": 4
        }
      }
    },
    {
      "doubleSided": true,
      "name": "LEGS",
      "normalTexture": {
        "index": 8
      },
      "occlusionTexture": {
        "index": 7
      },
      "pbrMetallicRoughness": {
        "baseColorTexture": {
          "index": 6
        },
        "metallicRoughnessTexture": {
          "index": 7
        }
      }
    }
  ],
  "meshes": [
    {
      "name": "Object_0",
      "primitives": [
        {
          "attributes": {
            "NORMAL": 1,
            "POSITION": 0,
            "TANGENT": 2,
            "TEXCOORD_0": 3
          },
          "indices": 4,
          "material": 0,
          "mode": 4
        }
      ]
    },
    {
      "name": "Object_1",
      "primitives": [
        {
          "attributes": {
            "NORMAL": 6,
            "POSITION": 5,
            "TANGENT": 7,
            "TEXCOORD_0": 8
          },
          "indices": 9,
          "material": 1,
          "mode": 4
        }
      ]
    },
    {
      "name": "Object_2",
      "primitives": [
        {
          "attributes": {
            "NORMAL": 11,
            "POSITION": 10,
            "TANGENT": 12,
            "TEXCOORD_0": 13
          },
          "indices": 14,
          "material": 2,
          "mode": 4
        }
      ]
    }
  ],
  "nodes": [
    {
      "children": [
        1
      ],
      "matrix": [
        1.0,
        0.0,
        0.0,
        0.0,
        0.0,
        2.220446049250313e-16,
        -1.0,
        0.0,
        0.0,
        1.0,
        2.220446049250313e-16,
        0.0,
        0.0,
        0.0,
        0.0,
        1.0
      ],
      "name": "Sketchfab_model"
    },
    {
      "children": [
        2,
        3,
        4
      ],
      "name": "POWER ARMOR FRAME.obj.cleaner.materialmerger.gles"
    },
    {
      "mesh": 0,
      "name": "Object_2"
    },
    {
      "mesh": 1,
      "name": "Object_3"
    },
    {
      "mesh": 2,
      "name": "Object_4"
    }
  ],
  "samplers": [
    {
      "magFilter": 9729,
      "minFilter": 9987,
      "wrapS": 10497,
      "wrapT": 10497
    }
  ],
  "scene": 0,
  "scenes": [
    {
      "name": "Sketchfab_Scene",
      "nodes": [
        0
      ]
    }
  ],
  "textures": [
    {
      "sampler": 0,
      "source": 0
    },
    {
      "sampler": 0,
      "source": 1
    },
    {
      "sampler": 0,
      "source": 2
    },
    {
      "sampler": 0,
      "source": 3
    },
    {
      "sampler": 0,
      "source": 4
    },
    {
      "sampler": 0,
      "source": 5
    },
    {
      "sampler": 0,
      "source": 6
    },
    {
      "sampler": 0,
      "source": 7
    },
    {
      "sampler": 0,
      "source": 8
    }
  ]
}
