<svg width="340" height="253" viewBox="0 0 340 253" fill="none" xmlns="http://www.w3.org/2000/svg">
<path d="M336.5 22L269.5 210L245 143.5L231 106.5V103.5C234 95.5 241.4 77.6 247 70C252.6 62.4 260 53.1667 263 49.5L273 40C275.5 38 280.8 33.8 282 33C283.5 32 295.5 25.5 301.5 23C307.5 20.5 318.5 17.5 325.5 16C331.1 14.8 337.167 14.1667 339.5 14L336.5 22Z" fill="url(#paint0_linear_9_5)"/>
<path d="M77 213C81.5 224.5 95.5 239.5 114 247.5C115.5 248.333 120 250.3 126 251.5C133.5 253 138.5 251.5 141.5 251.5C143.9 251.5 157.5 250.167 163 248.5L162 245L142.5 193.5L104.5 84.5L95 59L89.5 47.5L84.5 39.5C81 34 74.5 27.0833 72 25C68.4587 22.0489 57 13 41.5 6.5C29.1 1.3 8.66667 0 0 0L11.5 30.5C31.8333 87.5 73.4 203.8 77 213Z" fill="url(#paint1_linear_9_5)"/>
<path d="M171 220L130 107C131.167 105 134.7 100.7 135.5 99.5C136.5 98 147 84.5 151.5 80L151.5 80C156 75.5 162.5 69 169 64C175.5 59 182.5 55 187.5 53C192.5 51 203 47 216.5 46C229 45.0741 230.333 46 235.5 46V47L215.5 102.5L171 220Z" fill="url(#paint2_linear_9_5)"/>
<path d="M222 126L183 229.5C185.667 231.667 196.5 236 218.5 236C240.5 236 252.667 225.667 256 220.5L222 126Z" fill="url(#paint3_linear_9_5)"/>
<defs>
<linearGradient id="paint0_linear_9_5" x1="274.5" y1="194.5" x2="324" y2="50.5" gradientUnits="userSpaceOnUse">
<stop stop-color="#FF4891"/>
<stop offset="1" stop-color="#FF6785"/>
</linearGradient>
<linearGradient id="paint1_linear_9_5" x1="81" y1="3.43224e-06" x2="142" y2="221.5" gradientUnits="userSpaceOnUse">
<stop stop-color="#FF4E90"/>
<stop offset="1" stop-color="#FF6B83"/>
</linearGradient>
<linearGradient id="paint2_linear_9_5" x1="134.5" y1="60.5" x2="236" y2="191" gradientUnits="userSpaceOnUse">
<stop stop-color="#7621E5"/>
<stop offset="1" stop-color="#A03ECE"/>
</linearGradient>
<linearGradient id="paint3_linear_9_5" x1="212.5" y1="132.5" x2="236" y2="236" gradientUnits="userSpaceOnUse">
<stop stop-color="#772AE7"/>
<stop offset="1" stop-color="#A55CE0"/>
</linearGradient>
</defs>
</svg>
